{
    "asset" : {
        "generator" : "Khronos glTF Blender I/O v3.3.32",
        "version" : "2.0"
    },
    "scene" : 0,
    "scenes" : [
        {
            "name" : "Scene",
            "nodes" : [
                0
            ]
        }
    ],
    "nodes" : [
        {
            "mesh" : 0,
            "name" : "Gummy Bear.fav.004",
            "rotation" : [
                0.008621600456535816,
                0.7076866626739502,
                0.002397833624854684,
                0.7064697742462158
            ],
            "scale" : [
                1.2836811542510986,
                1.2836806774139404,
                1.2836804389953613
            ],
            "translation" : [
                -0.003004072466865182,
                0.8386363983154297,
                -0.011995792388916016
            ]
        }
    ],
    "materials" : [
        {
            "doubleSided" : true,
            "name" : "GummyBear.Green",
            "pbrMetallicRoughness" : {
                "baseColorFactor" : [
                    0.3941029906272888,
                    0.5798430442810059,
                    0.8000000715255737,
                    1
                ],
                "metallicFactor" : 0,
                "roughnessFactor" : 0.5
            }
        }
    ],
    "meshes" : [
        {
            "name" : "Cube.035",
            "primitives" : [
                {
                    "attributes" : {
                        "POSITION" : 0,
                        "NORMAL" : 1,
                        "TEXCOORD_0" : 2
                    },
                    "indices" : 3,
                    "material" : 0
                }
            ]
        }
    ],
    "accessors" : [
        {
            "bufferView" : 0,
            "componentType" : 5126,
            "count" : 9801,
            "max" : [
                0.8387643694877625,
                1.5408813953399658,
                0.7833186984062195
            ],
            "min" : [
                -0.8263077735900879,
                -1.7824792861938477,
                -0.9254077076911926
            ],
            "type" : "VEC3"
        },
        {
            "bufferView" : 1,
            "componentType" : 5126,
            "count" : 9801,
            "type" : "VEC3"
        },
        {
            "bufferView" : 2,
            "componentType" : 5126,
            "count" : 9801,
            "type" : "VEC2"
        },
        {
            "bufferView" : 3,
            "componentType" : 5123,
            "count" : 54336,
            "type" : "SCALAR"
        }
    ],
    "bufferViews" : [
        {
            "buffer" : 0,
            "byteLength" : 117612,
            "byteOffset" : 0,
            "target" : 34962
        },
        {
            "buffer" : 0,
            "byteLength" : 117612,
            "byteOffset" : 117612,
            "target" : 34962
        },
        {
            "buffer" : 0,
            "byteLength" : 78408,
            "byteOffset" : 235224,
            "target" : 34962
        },
        {
            "buffer" : 0,
            "byteLength" : 108672,
            "byteOffset" : 313632,
            "target" : 34963
        }
    ],
    "buffers" : [
        {
            "byteLength" : 422304,
            "uri" : "data:application/octet-stream;base64,"
        }
    ]
}
