{
    "asset" : {
        "generator" : "Khronos glTF Blender I/O v3.3.32",
        "version" : "2.0"
    },
    "extensionsUsed" : [
        "KHR_materials_specular",
        "KHR_materials_ior"
    ],
    "scene" : 0,
    "scenes" : [
        {
            "name" : "Scene",
            "nodes" : [
                0
            ]
        }
    ],
    "nodes" : [
        {
            "mesh" : 0,
            "name" : "cherry3",
            "rotation" : [
                0.7112249135971069,
                0,
                0,
                0.7029645442962646
            ],
            "scale" : [
                0.024213239550590515,
                0.024213239550590515,
                0.024213239550590515
            ]
        }
    ],
    "materials" : [
        {
            "doubleSided" : true,
            "extensions" : {
                "KHR_materials_specular" : {
                    "specularColorFactor" : [
                        1.2202971861580525,
                        1.2202971861580525,
                        1.2202971861580525
                    ]
                },
                "KHR_materials_ior" : {
                    "ior" : 1.4500000476837158
                }
            },
            "name" : "Material.003",
            "pbrMetallicRoughness" : {
                "baseColorFactor" : [
                    0.7444741725921631,
                    0.8181902170181274,
                    0.6911356449127197,
                    1
                ],
                "metallicFactor" : 0.7153284549713135,
                "roughnessFactor" : 0.2810218930244446
            }
        }
    ],
    "meshes" : [
        {
            "name" : "Mesh.001",
            "primitives" : [
                {
                    "attributes" : {
                        "POSITION" : 0,
                        "NORMAL" : 1,
                        "TEXCOORD_0" : 2
                    },
                    "indices" : 3,
                    "material" : 0
                }
            ]
        }
    ],
    "accessors" : [
        {
            "bufferView" : 0,
            "componentType" : 5126,
            "count" : 390,
            "max" : [
                0.366330623626709,
                0.34587734937667847,
                0.3671494424343109
            ],
            "min" : [
                -0.36706387996673584,
                -0.3497621417045593,
                -1.1378908157348633
            ],
            "type" : "VEC3"
        },
        {
            "bufferView" : 1,
            "componentType" : 5126,
            "count" : 390,
            "type" : "VEC3"
        },
        {
            "bufferView" : 2,
            "componentType" : 5126,
            "count" : 390,
            "type" : "VEC2"
        },
        {
            "bufferView" : 3,
            "componentType" : 5123,
            "count" : 2040,
            "type" : "SCALAR"
        }
    ],
    "bufferViews" : [
        {
            "buffer" : 0,
            "byteLength" : 4680,
            "byteOffset" : 0,
            "target" : 34962
        },
        {
            "buffer" : 0,
            "byteLength" : 4680,
            "byteOffset" : 4680,
            "target" : 34962
        },
        {
            "buffer" : 0,
            "byteLength" : 3120,
            "byteOffset" : 9360,
            "target" : 34962
        },
        {
            "buffer" : 0,
            "byteLength" : 4080,
            "byteOffset" : 12480,
            "target" : 34963
        }
    ],
    "buffers" : [
        {
            "byteLength" : 16560,
            "uri" : "data:application/octet-stream;base64,"
        }
    ]
}
