{
    "asset" : {
        "generator" : "Khronos glTF Blender I/O v3.3.32",
        "version" : "2.0"
    },
    "extensionsUsed" : [
        "KHR_materials_specular"
    ],
    "scene" : 0,
    "scenes" : [
        {
            "name" : "Scene",
            "nodes" : [
                0
            ]
        }
    ],
    "nodes" : [
        {
            "mesh" : 0,
            "name" : "Object_38",
            "rotation" : [
                0,
                -0.6471428275108337,
                0,
                0.7623687982559204
            ],
            "scale" : [
                1,
                0.8518908023834229,
                1
            ]
        }
    ],
    "materials" : [
        {
            "doubleSided" : true,
            "extensions" : {
                "KHR_materials_specular" : {
                    "specularColorFactor" : [
                        1.9999999999999998,
                        1.9999999999999998,
                        1.9999999999999998
                    ]
                }
            },
            "name" : "cream",
            "pbrMetallicRoughness" : {
                "baseColorTexture" : {
                    "index" : 0
                },
                "metallicFactor" : 0.11678832024335861,
                "roughnessFactor" : 0.27080294489860535
            }
        }
    ],
    "meshes" : [
        {
            "name" : "Object_17",
            "primitives" : [
                {
                    "attributes" : {
                        "POSITION" : 0,
                        "NORMAL" : 1,
                        "TEXCOORD_0" : 2
                    },
                    "indices" : 3,
                    "material" : 0
                }
            ]
        }
    ],
    "textures" : [
        {
            "sampler" : 0,
            "source" : 0
        }
    ],
    "images" : [
        {
            "bufferView" : 4,
            "mimeType" : "image/png",
            "name" : "cream Base Color"
        }
    ],
    "accessors" : [
        {
            "bufferView" : 0,
            "componentType" : 5126,
            "count" : 5468,
            "max" : [
                0.9366087317466736,
                2.0379791259765625,
                0.9383352398872375
            ],
            "min" : [
                -0.9564098119735718,
                -0.6113689541816711,
                -0.9474539160728455
            ],
            "type" : "VEC3"
        },
        {
            "bufferView" : 1,
            "componentType" : 5126,
            "count" : 5468,
            "type" : "VEC3"
        },
        {
            "bufferView" : 2,
            "componentType" : 5126,
            "count" : 5468,
            "type" : "VEC2"
        },
        {
            "bufferView" : 3,
            "componentType" : 5123,
            "count" : 21276,
            "type" : "SCALAR"
        }
    ],
    "bufferViews" : [
        {
            "buffer" : 0,
            "byteLength" : 65616,
            "byteOffset" : 0,
            "target" : 34962
        },
        {
            "buffer" : 0,
            "byteLength" : 65616,
            "byteOffset" : 65616,
            "target" : 34962
        },
        {
            "buffer" : 0,
            "byteLength" : 43744,
            "byteOffset" : 131232,
            "target" : 34962
        },
        {
            "buffer" : 0,
            "byteLength" : 42552,
            "byteOffset" : 174976,
            "target" : 34963
        },
        {
            "buffer" : 0,
            "byteLength" : 222365,
            "byteOffset" : 217528
        }
    ],
    "samplers" : [
        {
            "magFilter" : 9729,
            "minFilter" : 9987
        }
    ],
    "buffers" : [
        {
            "byteLength" : 439896,
            "uri" : "data:application/octet-stream;base64,"
        }
    ]
}
