{
    "asset" : {
        "generator" : "Khronos glTF Blender I/O v3.3.32",
        "version" : "2.0"
    },
    "scene" : 0,
    "scenes" : [
        {
            "name" : "Scene",
            "nodes" : [
                0
            ]
        }
    ],
    "nodes" : [
        {
            "mesh" : 0,
            "name" : "Circle.002",
            "translation" : [
                -2.8561275939864572e-06,
                1.5564820766448975,
                0
            ]
        }
    ],
    "meshes" : [
        {
            "name" : "Circle.002",
            "primitives" : [
                {
                    "attributes" : {
                        "POSITION" : 0,
                        "NORMAL" : 1,
                        "TEXCOORD_0" : 2
                    },
                    "indices" : 3
                }
            ]
        }
    ],
    "accessors" : [
        {
            "bufferView" : 0,
            "componentType" : 5126,
            "count" : 1857,
            "max" : [
                1.6600606441497803,
                1.7204949855804443,
                1.660062313079834
            ],
            "min" : [
                -1.6600638628005981,
                -1.3499950170516968,
                -1.660062313079834
            ],
            "type" : "VEC3"
        },
        {
            "bufferView" : 1,
            "componentType" : 5126,
            "count" : 1857,
            "type" : "VEC3"
        },
        {
            "bufferView" : 2,
            "componentType" : 5126,
            "count" : 1857,
            "type" : "VEC2"
        },
        {
            "bufferView" : 3,
            "componentType" : 5123,
            "count" : 11130,
            "type" : "SCALAR"
        }
    ],
    "bufferViews" : [
        {
            "buffer" : 0,
            "byteLength" : 22284,
            "byteOffset" : 0,
            "target" : 34962
        },
        {
            "buffer" : 0,
            "byteLength" : 22284,
            "byteOffset" : 22284,
            "target" : 34962
        },
        {
            "buffer" : 0,
            "byteLength" : 14856,
            "byteOffset" : 44568,
            "target" : 34962
        },
        {
            "buffer" : 0,
            "byteLength" : 22260,
            "byteOffset" : 59424,
            "target" : 34963
        }
    ],
    "buffers" : [
        {
            "byteLength" : 81684,
            "uri" : "data:application/octet-stream;base64,"
        }
    ]
}
