{
    "asset" : {
        "generator" : "Khronos glTF Blender I/O v3.3.32",
        "version" : "2.0"
    },
    "extensionsUsed" : [
        "KHR_materials_transmission",
        "KHR_materials_specular",
        "KHR_materials_ior"
    ],
    "scene" : 0,
    "scenes" : [
        {
            "name" : "Scene",
            "nodes" : [
                0
            ]
        }
    ],
    "nodes" : [
        {
            "mesh" : 0,
            "name" : "star",
            "scale" : [
                -0.0033601929899305105,
                -0.002934460062533617,
                -0.003226703964173794
            ]
        }
    ],
    "materials" : [
        {
            "doubleSided" : true,
            "extensions" : {
                "KHR_materials_transmission" : {
                    "transmissionFactor" : 0.7372262477874756
                },
                "KHR_materials_specular" : {
                    "specularColorFactor" : [
                        1.3603567859719825,
                        1.3603567859719825,
                        1.3603567859719825
                    ]
                },
                "KHR_materials_ior" : {
                    "ior" : 1.4500000476837158
                }
            },
            "name" : "star",
            "pbrMetallicRoughness" : {
                "baseColorFactor" : [
                    1,
                    0.2895709276199341,
                    0.3975399434566498,
                    0.5839415788650513
                ],
                "metallicFactor" : 0.043795619159936905,
                "roughnessFactor" : 0.17153283953666687
            }
        }
    ],
    "meshes" : [
        {
            "name" : "Object_0",
            "primitives" : [
                {
                    "attributes" : {
                        "POSITION" : 0,
                        "NORMAL" : 1
                    },
                    "indices" : 2,
                    "material" : 0
                }
            ]
        }
    ],
    "accessors" : [
        {
            "bufferView" : 0,
            "componentType" : 5126,
            "count" : 2586,
            "max" : [
                30.005874633789062,
                34.002296447753906,
                30.708263397216797
            ],
            "min" : [
                -29.514516830444336,
                -34.153350830078125,
                -31.27449607849121
            ],
            "type" : "VEC3"
        },
        {
            "bufferView" : 1,
            "componentType" : 5126,
            "count" : 2586,
            "type" : "VEC3"
        },
        {
            "bufferView" : 2,
            "componentType" : 5123,
            "count" : 2586,
            "type" : "SCALAR"
        }
    ],
    "bufferViews" : [
        {
            "buffer" : 0,
            "byteLength" : 31032,
            "byteOffset" : 0,
            "target" : 34962
        },
        {
            "buffer" : 0,
            "byteLength" : 31032,
            "byteOffset" : 31032,
            "target" : 34962
        },
        {
            "buffer" : 0,
            "byteLength" : 5172,
            "byteOffset" : 62064,
            "target" : 34963
        }
    ],
    "buffers" : [
        {
            "byteLength" : 67236,
            "uri" : "data:application/octet-stream;base64,"
        }
    ]
}
